<svg width="135" height="183" viewBox="0 0 135 183" fill="none" xmlns="http://www.w3.org/2000/svg">
<path d="M53.627 182.048C44.2403 182.048 34.7683 181.707 25.211 181.024C15.6537 180.512 7.291 179.317 0.123001 177.44V5.15199C3.87767 4.46932 7.88833 3.87199 12.155 3.35999C16.4217 2.67733 20.7737 2.16533 25.211 1.82399C29.6483 1.48266 34.0003 1.22666 38.267 1.05598C42.7043 0.88532 46.8857 0.799988 50.811 0.799988C61.563 0.799988 71.547 1.65332 80.763 3.35999C89.979 4.89599 97.915 7.54132 104.571 11.296C111.398 15.0507 116.688 20 120.443 26.144C124.198 32.288 126.075 39.8827 126.075 48.928C126.075 57.2907 124.027 64.4587 119.931 70.432C116.006 76.4053 110.459 81.184 103.291 84.768C114.043 88.352 121.979 93.6427 127.099 100.64C132.219 107.637 134.779 116.512 134.779 127.264C134.779 145.525 128.123 159.264 114.811 168.48C101.499 177.525 81.1043 182.048 53.627 182.048ZM31.867 100.128V154.144C35.451 154.485 39.291 154.741 43.387 154.912C47.483 155.083 51.2377 155.168 54.651 155.168C61.307 155.168 67.451 154.741 73.083 153.888C78.8857 153.035 83.835 151.584 87.931 149.536C92.1977 147.317 95.5257 144.416 97.915 140.832C100.475 137.248 101.755 132.64 101.755 127.008C101.755 116.939 98.0857 109.941 90.747 106.016C83.4083 102.091 73.2537 100.128 60.283 100.128H31.867ZM31.867 74.784H54.651C66.939 74.784 76.5817 73.0773 83.579 69.664C90.5763 66.08 94.075 59.7653 94.075 50.72C94.075 42.1867 90.4057 36.128 83.067 32.544C75.899 28.96 66.5123 27.168 54.907 27.168C49.9577 27.168 45.5203 27.2533 41.595 27.424C37.8403 27.5947 34.5977 27.8507 31.867 28.192V74.784Z"/><style>path{fill:#000;}@media(prefers-color-scheme: dark){path{fill: #FFF;}}</style></svg>
