<svg viewBox="0 0 218 199" fill="none" xmlns="http://www.w3.org/2000/svg">
<path d="M80.515 193.616C80.515 196.688 79.9177 198.224 78.723 198.224C77.5283 198.224 76.419 197.2 75.395 195.152C74.5417 193.104 73.9443 191.141 73.603 189.264C73.4323 187.387 73.347 185.851 73.347 184.656C69.251 182.779 64.899 180.304 60.291 177.232C55.683 174.16 53.379 171.259 53.379 168.528C53.379 167.504 53.8057 166.992 54.659 166.992C55.171 166.992 56.707 167.845 59.267 169.552C61.827 171.088 64.5577 172.88 67.459 174.928C70.531 176.805 72.4937 177.915 73.347 178.256C73.347 159.483 78.5523 134.395 88.963 102.992C99.5443 71.5893 110.467 44.368 121.731 21.328C101.08 16.3787 83.5017 13.904 68.995 13.904C61.827 13.904 55.0003 14.5867 48.515 15.952C42.0297 17.1467 35.8003 19.1947 29.827 22.096C23.8537 24.8267 19.075 29.008 15.491 34.64C11.907 40.272 10.115 46.928 10.115 54.608C10.115 72.016 18.3923 88.4 34.947 103.76C35.6297 100.347 36.483 98.64 37.507 98.64C38.7017 98.64 40.1523 100.517 41.859 104.272C43.7363 107.856 44.675 110.331 44.675 111.696C44.675 113.915 43.139 115.024 40.067 115.024C33.7523 115.024 27.3523 111.44 20.867 104.272C14.5523 96.9333 9.51767 88.7413 5.763 79.696C2.179 70.6507 0.387 62.9707 0.387 56.656C0.387 47.2693 2.435 39.248 6.531 32.592C10.7977 25.7653 16.515 20.6453 23.683 17.232C30.851 13.8187 38.275 11.344 45.955 9.808C53.635 8.272 61.827 7.504 70.531 7.504C86.2323 7.504 104.408 9.72266 125.059 14.16C127.448 8.52799 130.008 4.51732 132.739 2.12799C132.91 2.12799 133.08 2.12799 133.251 2.12799C133.934 2.12799 134.702 2.04266 135.555 1.87199C136.408 1.70133 137.347 1.53066 138.371 1.35999C139.395 1.01866 140.248 0.847992 140.931 0.847992C145.71 0.847992 148.099 1.87199 148.099 3.92C148.099 4.09066 148.014 4.26133 147.843 4.43199C147.843 4.60266 147.843 4.77332 147.843 4.94398C145.966 7.50399 143.491 11.6853 140.419 17.488C146.734 19.1947 153.134 21.328 159.619 23.888C166.104 26.2773 173.016 29.4347 180.355 33.36C187.694 37.2853 193.582 42.064 198.019 47.696C202.627 53.328 204.931 59.3867 204.931 65.872C204.931 71.8453 202.968 77.392 199.043 82.512C195.288 87.4613 190.168 91.728 183.683 95.312C177.368 98.7253 171.395 101.541 165.763 103.76C160.302 105.979 154.584 107.856 148.611 109.392C154.755 109.733 161.411 110.672 168.579 112.208C175.747 113.744 183.171 115.963 190.851 118.864C198.531 121.765 204.846 125.861 209.795 131.152C214.915 136.443 217.475 142.416 217.475 149.072C217.475 155.557 214.488 161.957 208.515 168.272C191.278 186.363 166.787 195.408 135.043 195.408C114.051 195.408 95.7897 192.592 80.259 186.96C80.259 187.643 80.259 188.667 80.259 190.032C80.4297 191.568 80.515 192.763 80.515 193.616ZM192.899 66.384C192.899 61.0933 190.851 56.0587 186.755 51.28C182.659 46.3307 177.283 42.1493 170.627 38.736C164.142 35.3227 158.168 32.5067 152.707 30.288C147.246 28.0693 141.87 26.192 136.579 24.656H136.323C122.499 48.72 110.211 77.2213 99.459 110.16C102.19 109.307 105.944 108.709 110.723 108.368C115.672 107.856 118.915 107.429 120.451 107.088C126.595 106.064 132.995 104.699 139.651 102.992C146.478 101.115 154.243 98.5547 162.947 95.312C171.822 92.0693 178.99 87.9733 184.451 83.024C190.083 77.904 192.899 72.3573 192.899 66.384ZM194.691 172.368C201.859 165.2 205.443 158.203 205.443 151.376C205.443 144.549 202.627 138.661 196.995 133.712C191.534 128.592 184.536 124.837 176.003 122.448C167.64 120.059 159.704 118.352 152.195 117.328C144.686 116.133 137.859 115.536 131.715 115.536C129.838 115.536 126.254 115.877 120.963 116.56C115.672 117.072 110.552 117.584 105.603 118.096C100.824 118.608 97.923 118.864 96.899 118.864C96.7283 118.864 96.643 118.864 96.643 118.864C87.939 145.829 82.6483 166.48 80.771 180.816C95.4483 186.619 113.624 189.52 135.299 189.52C163.63 189.52 183.427 183.803 194.691 172.368Z" fill="white"/>
</svg>
