<svg width="24" height="22" viewBox="0 0 24 22" fill="none" xmlns="http://www.w3.org/2000/svg">
<path d="M11.992 0.965999C11.558 0.965999 11.122 1.052 10.712 1.223L1.779 4.917C1.276 5.125 1.289 5.825 1.791 6.033L10.773 9.591C11.5599 9.91 12.4401 9.91 13.227 9.591L22.209 6.033C22.712 5.837 22.712 5.125 22.221 4.917L13.264 1.223C12.8615 1.05282 12.429 0.96542 11.992 0.965999ZM23.4 7.056C23.3238 7.05649 23.2484 7.07178 23.178 7.101L13.166 10.978C13.054 11.0239 12.9581 11.102 12.8904 11.2024C12.8228 11.3028 12.7865 11.4209 12.786 11.542V20.438C12.7869 20.5354 12.8116 20.6311 12.8578 20.7168C12.904 20.8026 12.9704 20.8758 13.0512 20.9301C13.132 20.9845 13.2249 21.0183 13.3217 21.0287C13.4185 21.0392 13.5165 21.0259 13.607 20.99L23.62 17.1C23.7323 17.0583 23.829 16.983 23.8969 16.8845C23.9649 16.7859 24.0009 16.6688 24 16.549V7.653C23.9989 7.49456 23.9353 7.34298 23.8229 7.23132C23.7104 7.11966 23.5584 7.057 23.4 7.057V7.056ZM0.676 7.095C0.587213 7.09185 0.498735 7.1071 0.416129 7.1398C0.333523 7.1725 0.258575 7.22193 0.196 7.285C0.086 7.396 0 7.53 0 7.69V16.045C0 16.487 0.515 16.782 0.908 16.585L7.178 13.579L7.485 13.432L10.454 11.996C10.92 11.776 10.884 11.088 10.393 10.904L0.883 7.138C0.817351 7.11054 0.747142 7.09562 0.676 7.094V7.095Z" fill="white"/>
</svg>
